<svg xmlns="http://www.w3.org/2000/svg" viewBox="0 0 800 540" role="img" aria-label="*'1̀. '̀1'F">
  <defs>
    <linearGradient id="sky" x1="0%" y1="0%" x2="0%" y2="100%">
      <stop offset="0%" stop-color="#7c2d12"/>
      <stop offset="45%" stop-color="#c2410c"/>
      <stop offset="100%" stop-color="#431407"/>
    </linearGradient>
    <linearGradient id="sand" x1="0%" y1="0%" x2="100%" y2="0%">
      <stop offset="0%" stop-color="#92400e"/>
      <stop offset="100%" stop-color="#78350f"/>
    </linearGradient>
  </defs>
  <rect width="800" height="540" fill="url(#sky)"/>
  <circle cx="650" cy="110" r="70" fill="#fcd34d" opacity="0.85"/>
  <rect y="360" width="800" height="180" fill="url(#sand)"/>
  <path d="M0 360 Q200 320 400 360 T800 360 L800 540 L0 540 Z" fill="#a16207" opacity="0.55"/>
  <g transform="translate(290 180)">
    <rect x="90" y="120" width="140" height="110" fill="#fef3c7" opacity="0.95"/>
    <path d="M160 40 L110 120 L210 120 Z" fill="#fde68a"/>
    <rect x="150" y="55" width="20" height="65" fill="#fbbf24"/>
    <circle cx="160" cy="40" r="16" fill="#f59e0b"/>
    <rect x="125" y="145" width="18" height="55" rx="4" fill="#451a03" opacity="0.35"/>
    <rect x="177" y="145" width="18" height="55" rx="4" fill="#451a03" opacity="0.35"/>
    <path d="M40 230 Q160 180 280 230" fill="none" stroke="#fef3c7" stroke-width="3" opacity="0.5"/>
  </g>
  <g opacity="0.25" fill="#fff">
    <path d="M80 300 L120 260 L160 300 Z"/>
    <path d="M560 290 L610 240 L660 290 Z"/>
  </g>
</svg>
